<?xml version="1.0" standalone="no"?>
<!DOCTYPE svg PUBLIC "-//W3C//DTD SVG 20010904//EN"
 "http://www.w3.org/TR/2001/REC-SVG-20010904/DTD/svg10.dtd">
<svg version="1.0" xmlns="http://www.w3.org/2000/svg"
 width="512.000000pt" height="512.000000pt" viewBox="0 0 512.000000 512.000000"
 preserveAspectRatio="xMidYMid meet">
<metadata>
Created by potrace 1.11, written by Peter Selinger 2001-2013
</metadata>
<g transform="translate(0.000000,512.000000) scale(0.100000,-0.100000)"
fill="#000000" stroke="none">
<path d="M20 5109 c0 -5 -4 -7 -10 -4 -7 4 -10 -333 -10 -1004 0 -875 2 -1010
14 -1005 23 9 43 46 51 94 4 25 16 64 27 88 11 23 18 52 15 63 -4 16 -3 18 8
9 9 -8 15 -3 25 19 6 16 10 40 8 52 -2 18 1 23 15 21 14 -2 17 5 17 36 0 27 7
45 21 58 11 10 18 25 16 34 -4 16 15 40 33 40 5 0 10 9 10 20 0 11 9 29 19 39
10 10 22 29 26 40 4 12 16 32 28 45 42 45 67 78 67 88 0 5 9 6 20 3 20 -6 29
13 13 29 -4 3 -8 15 -10 26 -2 14 3 20 16 20 14 0 22 10 27 32 3 18 15 39 26
47 11 7 17 19 14 26 -2 7 2 12 12 11 9 0 22 10 29 24 7 14 18 24 24 22 6 -1 8
2 4 8 -4 6 7 23 24 37 17 15 31 32 31 38 0 19 58 68 70 60 9 -5 10 -2 6 12 -4
12 1 28 14 43 11 13 20 27 20 32 0 4 7 8 15 8 9 0 29 16 46 35 17 19 37 35 44
35 8 0 17 9 20 20 7 23 41 44 60 37 15 -6 55 36 55 59 0 8 5 12 10 9 6 -4 17
-2 24 5 8 6 27 8 43 5 20 -5 24 -4 14 4 -12 8 -10 12 10 21 21 9 24 17 21 41
-3 22 0 29 12 29 10 0 16 8 16 23 0 12 9 30 20 40 18 15 21 16 26 2 4 -9 4
-19 0 -22 -3 -3 -1 -12 4 -18 10 -12 40 0 130 50 14 8 28 11 34 5 7 -7 141 67
186 105 8 7 28 15 44 19 15 4 40 16 55 27 14 10 58 32 96 48 39 15 88 40 109
55 25 17 52 26 77 26 21 0 41 5 44 10 3 6 16 11 28 11 12 1 -3 5 -33 10 -30 5
-91 7 -135 4 -44 -3 -114 -8 -157 -10 -42 -2 -118 -11 -170 -20 -51 -8 -102
-16 -113 -18 -18 -2 -21 6 -29 76 l-8 77 -57 0 -56 0 -1 -56 c0 -37 -5 -58
-15 -65 -11 -7 -12 -11 -1 -18 8 -5 12 -22 10 -46 -3 -33 -7 -39 -30 -42 -24
-3 -27 -1 -24 24 1 16 7 27 12 26 5 -1 9 25 9 58 -1 41 3 59 11 59 18 0 26 17
19 40 -6 20 -16 20 -601 20 -411 0 -594 -3 -594 -11z m1177 -294 c-6 -64 -17
-68 -16 -7 1 29 6 52 11 52 6 0 8 -20 5 -45z m-36 -12 c13 -16 12 -17 -3 -4
-10 7 -18 15 -18 17 0 8 8 3 21 -13z m279 -10 c-8 -3 -22 -11 -30 -17 -13 -10
-13 -9 -1 7 7 9 21 17 30 16 13 0 14 -1 1 -6z"/>
<path d="M2248 5093 c-2 -19 -9 -29 -23 -30 -72 -10 -175 -38 -179 -49 -3 -8
7 -20 24 -29 33 -17 52 -46 42 -61 -11 -16 -113 -64 -136 -64 -12 0 -34 -9
-51 -20 -16 -11 -36 -20 -44 -20 -8 0 -42 -18 -77 -40 -35 -22 -69 -40 -77
-40 -7 0 -32 -14 -55 -31 -23 -17 -77 -46 -120 -64 -42 -18 -111 -55 -152 -82
-116 -76 -139 -90 -226 -133 -44 -23 -109 -65 -145 -93 -96 -78 -238 -223
-301 -307 -31 -41 -73 -91 -93 -110 -20 -19 -48 -57 -61 -85 -13 -27 -51 -93
-84 -145 -34 -52 -82 -135 -107 -185 -25 -49 -65 -124 -88 -165 -25 -44 -56
-119 -73 -180 -39 -133 -92 -372 -92 -409 0 -16 -7 -48 -15 -71 -20 -56 -20
-294 -1 -393 8 -40 20 -119 25 -176 8 -69 20 -124 37 -165 38 -90 62 -151 94
-241 38 -107 87 -210 107 -227 14 -11 25 -3 82 58 102 109 142 126 180 78 43
-54 16 -104 -90 -169 -18 -11 -46 -37 -62 -58 l-31 -37 22 -44 c12 -24 36 -59
53 -77 16 -19 37 -44 46 -57 l16 -23 59 58 c33 32 67 77 78 100 19 44 44 63
82 63 33 0 48 -18 48 -57 0 -44 -22 -86 -77 -148 -25 -27 -55 -70 -68 -95 -30
-59 -28 -62 112 -210 113 -120 206 -202 284 -248 48 -28 77 -49 219 -157 119
-90 294 -173 495 -234 205 -62 243 -70 348 -77 210 -13 266 -37 202 -88 -18
-15 -24 -27 -20 -39 7 -16 84 -17 1386 -17 l1379 0 0 898 0 898 -34 2 c-19 2
-67 18 -105 37 -39 19 -75 35 -81 35 -6 0 -29 12 -52 27 -49 33 -114 36 -135
7 -31 -42 -6 -124 38 -124 8 0 60 -22 115 -49 127 -62 135 -76 94 -158 -44
-86 -143 -246 -156 -250 -6 -2 -36 17 -67 42 -58 47 -252 146 -324 165 -58 15
-83 1 -83 -46 0 -24 5 -37 18 -41 9 -4 25 -15 36 -24 10 -10 51 -34 90 -54 39
-20 83 -48 97 -62 32 -29 73 -144 64 -174 -9 -26 -119 -148 -154 -170 -14 -9
-47 -36 -72 -60 -62 -59 -132 -117 -193 -159 -64 -44 -125 -90 -150 -112 -11
-10 -23 -18 -27 -18 -4 0 -27 -17 -52 -38 -25 -20 -72 -50 -104 -66 -32 -16
-89 -50 -128 -75 -40 -26 -114 -61 -175 -82 -58 -20 -143 -53 -190 -73 -46
-20 -89 -36 -95 -36 -6 0 -28 -9 -49 -21 -35 -19 -182 -59 -266 -73 -19 -3
-84 -10 -144 -16 -116 -12 -125 -9 -126 35 0 11 -14 36 -32 55 -31 35 -78 124
-78 148 0 8 -17 68 -39 135 -64 202 -79 267 -91 382 -6 61 -16 128 -21 149
-16 60 -2 66 163 66 104 0 144 4 161 15 23 15 183 55 221 55 29 0 76 49 93 97
17 50 16 62 -6 109 -23 47 -152 174 -177 174 -9 0 -40 13 -69 29 -54 31 -215
61 -326 61 -30 0 -62 6 -71 13 -21 16 -45 95 -59 192 -13 93 -17 787 -7 1140
4 132 10 321 13 420 3 99 9 246 15 328 28 407 39 551 60 747 10 98 18 140 54
288 8 31 23 95 34 142 l19 85 124 8 c81 5 139 4 169 -4 24 -5 82 -15 128 -20
45 -5 90 -13 100 -19 9 -5 60 -16 112 -25 133 -22 377 -83 426 -106 22 -10 48
-19 56 -19 9 0 29 -7 45 -15 40 -21 120 -55 130 -55 5 0 33 -16 63 -36 30 -20
69 -41 85 -47 17 -5 37 -15 45 -22 8 -7 33 -22 55 -33 22 -11 49 -30 60 -42
11 -13 38 -34 60 -48 62 -39 109 -79 205 -177 49 -49 119 -115 157 -145 72
-57 183 -184 295 -335 37 -49 79 -106 93 -125 53 -72 85 -126 95 -162 8 -28
16 -38 30 -38 20 0 20 12 20 795 l0 795 -1434 0 -1435 0 -3 -27z m92 -538 c0
-8 -4 -15 -10 -15 -5 0 -10 7 -10 15 0 8 5 15 10 15 6 0 10 -7 10 -15z m-10
-110 c0 -29 -3 -30 -24 -9 -22 21 -20 34 4 34 15 0 20 -7 20 -25z m-65 -121
c0 -38 -4 -49 -17 -52 -29 -5 -40 31 -22 73 20 50 39 40 39 -21z m70 -52 c-4
-32 -13 -53 -22 -56 -14 -6 -14 -4 -2 10 8 10 13 19 12 21 -2 1 -3 24 -3 50 0
34 3 44 11 36 7 -7 9 -29 4 -61z m-28 -166 c2 -103 -8 -127 -45 -107 -28 15
-35 41 -16 62 10 11 15 28 12 44 -3 14 1 33 8 42 7 10 14 26 14 36 0 9 6 17
13 17 9 0 13 -25 14 -94z m-101 -63 c-10 -11 -36 19 -36 42 0 37 13 37 28 0 8
-20 12 -39 8 -42z m-65 -43 c21 -12 26 -45 8 -56 -14 -8 -26 5 -34 39 -8 30
-4 32 26 17z m149 -59 c11 -22 14 -71 3 -71 -4 0 -17 10 -30 22 -33 31 -29 63
9 67 4 1 12 -8 18 -18z m-19 -114 c9 -3 25 -26 34 -51 17 -44 17 -46 -2 -76
-17 -26 -18 -40 -12 -82 5 -32 5 -56 -1 -63 -6 -7 -9 -59 -8 -116 2 -107 -8
-149 -38 -149 -14 0 -14 9 0 114 0 6 -14 17 -32 26 -30 15 -31 17 -18 35 22
28 19 62 -4 75 -27 14 -25 28 4 40 18 6 25 18 29 47 2 21 11 56 20 77 16 44 7
102 -21 122 -8 6 -12 16 -8 23 6 9 12 9 24 -2 10 -8 24 -17 33 -20z m-593
-556 c37 -20 52 -69 45 -143 -7 -80 -30 -129 -68 -147 -18 -9 -83 -18 -165
-23 -74 -4 -191 -13 -260 -20 -69 -7 -205 -13 -303 -13 l-179 0 -25 29 c-19
22 -24 37 -19 60 3 17 8 47 11 66 3 19 8 45 11 58 8 41 94 66 275 81 61 5 119
16 137 25 17 9 48 16 69 16 21 0 58 7 83 15 58 19 352 16 388 -4z m557 -100
c3 -5 1 -12 -5 -16 -5 -3 -10 1 -10 9 0 18 6 21 15 7z m13 -66 c-3 -3 -9 2
-12 12 -6 14 -5 15 5 6 7 -7 10 -15 7 -18z m-5 -621 c8 -8 -3 -34 -14 -34 -5
0 -9 9 -9 20 0 19 11 26 23 14z m1737 -2359 c-25 -26 -40 -32 -40 -15 0 6 6
10 14 10 8 0 16 7 20 15 3 8 11 15 17 15 7 0 2 -11 -11 -25z"/>
<path d="M3365 3398 c-106 -12 -235 -42 -288 -67 -53 -25 -100 -53 -109 -66
-4 -5 -8 -62 -8 -125 0 -125 8 -153 64 -222 15 -18 37 -46 50 -63 l24 -30 239
3 c131 2 310 7 398 11 88 4 184 6 213 3 35 -3 67 2 95 13 29 11 85 19 177 23
141 5 151 8 214 65 11 9 25 17 31 17 14 0 55 42 55 56 0 6 8 27 18 48 16 32
17 45 8 95 -15 80 -36 106 -111 140 -36 17 -79 40 -96 52 -60 43 -129 50 -524
53 -203 2 -406 -1 -450 -6z"/>
<path d="M31 1834 c0 -11 3 -14 6 -6 3 7 2 16 -1 19 -3 4 -6 -2 -5 -13z"/>
<path d="M1 865 l-1 -821 31 -11 c17 -7 28 -17 24 -22 -4 -8 40 -11 139 -11
125 0 145 2 140 15 -4 9 0 15 10 15 14 0 21 18 17 43 -1 5 3 6 7 3 11 -7 57
33 65 57 4 9 12 17 18 17 6 0 9 9 6 19 -3 12 1 22 9 25 8 3 14 15 14 26 0 11
5 20 10 20 6 0 10 9 10 20 0 11 5 20 10 20 6 0 10 7 10 15 0 17 20 57 34 66 5
4 6 14 3 22 -3 9 2 17 14 20 13 3 17 11 13 21 -3 9 -1 16 5 16 6 0 11 11 11
25 0 14 4 25 8 25 5 0 14 12 20 26 7 14 8 23 2 19 -12 -8 -13 15 -1 34 5 8 14
10 22 5 12 -7 12 -5 1 9 -15 18 -8 37 13 37 11 0 13 -8 8 -32 l-6 -33 22 24
c24 28 27 41 7 41 -8 0 -17 7 -20 16 -3 8 -12 12 -18 9 -7 -4 -6 -1 2 7 8 7
21 20 28 29 11 14 9 16 -10 15 -18 -1 -22 4 -20 21 4 26 -38 73 -63 73 -9 0
-14 4 -11 9 3 4 -6 18 -19 31 -13 13 -22 27 -19 31 3 5 -2 9 -11 9 -9 0 -13 5
-10 10 3 6 -1 10 -9 10 -8 0 -17 8 -21 18 -3 9 -20 28 -38 41 -17 13 -45 51
-62 84 -16 32 -35 62 -42 64 -7 3 -13 11 -13 19 0 7 -11 21 -25 30 -14 9 -25
21 -25 26 0 12 -39 48 -52 48 -5 0 -6 5 -3 10 3 6 -5 14 -19 20 -14 5 -26 12
-26 15 0 4 4 4 10 0 5 -3 3 7 -5 21 -8 15 -12 31 -10 34 3 4 -7 18 -20 30 -14
13 -25 34 -25 47 0 14 -4 21 -10 18 -5 -3 -10 -1 -10 5 0 7 -6 10 -14 7 -11
-4 -13 5 -11 44 1 27 -1 52 -6 55 -5 3 -7 10 -4 15 4 5 1 9 -5 9 -7 0 -10 -7
-6 -15 3 -8 1 -15 -4 -15 -12 0 -40 53 -40 75 0 8 -5 15 -11 15 -6 0 -9 7 -5
15 3 8 1 25 -4 37 -5 14 -9 -297 -9 -797z"/>
<path d="M386 1157 c3 -10 9 -15 12 -12 3 3 0 11 -7 18 -10 9 -11 8 -5 -6z"/>
<path d="M421 1103 c7 -12 15 -20 18 -17 3 2 -3 12 -13 22 -17 16 -18 16 -5
-5z"/>
<path d="M450 1064 c0 -5 7 -18 15 -28 8 -11 15 -16 15 -10 0 5 -7 18 -15 28
-8 11 -15 16 -15 10z"/>
<path d="M655 790 c10 -11 20 -20 23 -20 3 0 -3 9 -13 20 -10 11 -20 20 -23
20 -3 0 3 -9 13 -20z"/>
<path d="M690 749 c0 -8 16 -31 36 -50 31 -28 34 -30 24 -10 -20 39 -60 79
-60 60z"/>
<path d="M760 623 c-24 -9 -40 -25 -49 -46 -8 -18 -24 -54 -37 -80 -29 -60
-30 -77 -4 -70 11 3 27 -2 36 -12 16 -16 16 -19 1 -45 -15 -24 -15 -29 -2 -34
24 -9 18 -54 -14 -99 -38 -56 -101 -200 -101 -232 0 -3 278 -4 617 -3 463 2
617 6 620 15 7 20 -35 34 -125 40 -48 3 -107 11 -132 19 -101 30 -214 77 -224
93 -3 5 -18 12 -32 15 -14 4 -46 21 -70 39 -33 24 -44 38 -43 57 2 53 -2 66
-36 103 -46 50 -58 48 -49 -8 5 -40 4 -45 -12 -45 -31 0 -84 38 -84 60 0 12
13 28 30 39 34 20 31 26 -30 56 -19 10 -67 42 -106 71 -39 30 -74 54 -79 54
-5 0 -16 6 -24 13 -13 12 -22 12 -51 0z"/>
</g>
</svg>
